<svg xmlns="http://www.w3.org/2000/svg" viewBox="0 0 20 20"><path fill="#5E5E5E" d="M9.8 13.1l-.7.7-5-5 .7-.7 5 5zM11.8 11.1l-.7.7-5-5 .7-.7 5 5zM13.8 9.1l-.7.7-5-5 .7-.7 5 5zM3.8 8.8l-.7-.7 5-5 .7.7-5 5zM.6 3.4L3.4.6c.8-.8 2-.8 2.8 0L7.7 2c-.8.7-.7.6-1.5 1.4L3.4 6.2c-.8.8-.6.7-1.4 1.5L.6 6.2c-.8-.7-.8-2 0-2.8zM10.1 13.6l3.9.4-.4-3.9-3.5 3.5z"/><circle fill="#5E5E5E" cx="12.4" cy="18.5" r="1.5"/><circle fill="#5E5E5E" cx="18.5" cy="12.4" r="1.5"/><path fill="#5E5E5E" d="M17.63 12.485l.707.707-5.092 5.09-.707-.706z"/></svg>