<svg xmlns="http://www.w3.org/2000/svg" width="34" height="34" viewBox="0 0 34 34"><path fill-rule="evenodd" clip-rule="evenodd" fill="#EBEBEB" d="M16.99 32.258c-8.547 0-15.5-6.953-15.5-15.5s6.953-15.5 15.5-15.5 15.5 6.953 15.5 15.5-6.954 15.5-15.5 15.5z"/><path fill="#CCC" d="M16.99 2.758c7.72 0 14 6.28 14 14s-6.28 14-14 14-14-6.28-14-14 6.28-14 14-14m0-3c-9.39 0-17 7.61-17 17s7.61 17 17 17 17-7.61 17-17-7.612-17-17-17z"/><path fill-rule="evenodd" clip-rule="evenodd" fill="#707071" d="M13.99 24.258l8-7.5-8-7.5v15z"/></svg>