<?xml version="1.0" encoding="utf-8"?>
<!-- Generator: Adobe Illustrator 16.0.0, SVG Export Plug-In . SVG Version: 6.00 Build 0)  -->
<!DOCTYPE svg PUBLIC "-//W3C//DTD SVG 1.1//EN" "http://www.w3.org/Graphics/SVG/1.1/DTD/svg11.dtd">
<svg version="1.1" id="Layer_1" xmlns="http://www.w3.org/2000/svg" xmlns:xlink="http://www.w3.org/1999/xlink" x="0px" y="0px"
	 width="15.435px" height="15.729px" viewBox="0 0 15.435 15.729" enable-background="new 0 0 15.435 15.729" xml:space="preserve">
<path fill-rule="evenodd" clip-rule="evenodd" fill="#6E6C6C" d="M15.142,1.708L1.707,15.143c-0.39,0.391-1.023,0.391-1.414,0
	s-0.391-1.024,0-1.414L13.728,0.293c0.39-0.39,1.024-0.39,1.414,0C15.533,0.684,15.533,1.317,15.142,1.708z"/>
<path fill-rule="evenodd" clip-rule="evenodd" fill="#6E6C6C" d="M1.707,0.586l13.435,13.435c0.39,0.391,0.39,1.024,0,1.415
	c-0.391,0.39-1.024,0.39-1.414,0L0.293,2c-0.391-0.39-0.391-1.023,0-1.414S1.317,0.195,1.707,0.586z"/>
</svg>
