<?xml version="1.0" encoding="utf-8"?>
<!-- Generator: Adobe Illustrator 18.0.0, SVG Export Plug-In . SVG Version: 6.00 Build 0)  -->
<!DOCTYPE svg PUBLIC "-//W3C//DTD SVG 1.1//EN" "http://www.w3.org/Graphics/SVG/1.1/DTD/svg11.dtd">
<svg version="1.1" id="Layer_1" xmlns="http://www.w3.org/2000/svg" xmlns:xlink="http://www.w3.org/1999/xlink" x="0px" y="0px"
	 viewBox="0 0 20 20" enable-background="new 0 0 20 20" xml:space="preserve">
<path fill="#5E5E5E" d="M9.8,13.1l-0.7,0.7l-5-5l0.7-0.7L9.8,13.1z"/>
<path fill="#5E5E5E" d="M11.8,11.1l-0.7,0.7l-5-5l0.7-0.7L11.8,11.1z"/>
<path fill="#5E5E5E" d="M13.8,9.1l-0.7,0.7l-5-5l0.7-0.7L13.8,9.1z"/>
<path fill="#5E5E5E" d="M3.8,8.8L3.1,8.1l5-5l0.7,0.7L3.8,8.8z"/>
<path fill="#5E5E5E" d="M0.6,3.4l2.8-2.8c0.8-0.8,2-0.8,2.8,0L7.7,2C6.9,2.7,7,2.6,6.2,3.4L3.4,6.2C2.6,7,2.8,6.9,2,7.7L0.6,6.2
	C-0.2,5.5-0.2,4.2,0.6,3.4z"/>
<path fill="#5E5E5E" d="M10.1,13.6L14,14l-0.4-3.9L10.1,13.6z"/>
<circle fill="#5E5E5E" cx="12.4" cy="18.5" r="1.5"/>
<circle fill="#5E5E5E" cx="18.5" cy="12.4" r="1.5"/>
<g>
	
		<rect x="14.9" y="11.8" transform="matrix(0.7071 0.7071 -0.7071 0.7071 15.4375 -6.3944)" fill="#5E5E5E" width="1" height="7.2"/>
</g>
</svg>
