<?xml version="1.0" encoding="utf-8"?>
<!-- Generator: Adobe Illustrator 16.0.0, SVG Export Plug-In . SVG Version: 6.00 Build 0)  -->
<!DOCTYPE svg PUBLIC "-//W3C//DTD SVG 1.1//EN" "http://www.w3.org/Graphics/SVG/1.1/DTD/svg11.dtd">
<svg version="1.1" id="Layer_1" xmlns="http://www.w3.org/2000/svg" xmlns:xlink="http://www.w3.org/1999/xlink" x="0px" y="0px"
	 width="34px" height="34px" viewBox="0 0 34 34" enable-background="new 0 0 34 34" xml:space="preserve">
<g>
	<path fill-rule="evenodd" clip-rule="evenodd" fill="#EBEBEB" d="M16.99,32.258c-8.547,0-15.5-6.953-15.5-15.5
		s6.953-15.5,15.5-15.5s15.5,6.953,15.5,15.5S25.536,32.258,16.99,32.258z"/>
	<path fill="#CCCCCC" d="M16.99,2.758c7.72,0,14,6.28,14,14s-6.28,14-14,14s-14-6.28-14-14S9.27,2.758,16.99,2.758 M16.99-0.242
		c-9.389,0-17,7.611-17,17s7.611,17,17,17c9.389,0,17-7.611,17-17S26.378-0.242,16.99-0.242L16.99-0.242z"/>
</g>
<path fill-rule="evenodd" clip-rule="evenodd" fill="#707071" d="M13.99,24.258l8-7.5l-8-7.5V24.258z"/>
</svg>
