<?xml version="1.0" encoding="utf-8"?>
<!-- Generator: Adobe Illustrator 16.0.0, SVG Export Plug-In . SVG Version: 6.00 Build 0)  -->
<!DOCTYPE svg PUBLIC "-//W3C//DTD SVG 1.1//EN" "http://www.w3.org/Graphics/SVG/1.1/DTD/svg11.dtd">
<svg version="1.1" id="Layer_1" xmlns="http://www.w3.org/2000/svg" xmlns:xlink="http://www.w3.org/1999/xlink" x="0px" y="0px"
	 width="34px" height="34px" viewBox="0 0 34 34" enable-background="new 0 0 34 34" xml:space="preserve">
<g>
	<path fill="#EBEBEB" d="M17.12,32.258c-8.547,0-15.5-6.953-15.5-15.5s6.953-15.5,15.5-15.5c8.547,0,15.5,6.953,15.5,15.5
		S25.666,32.258,17.12,32.258z"/>
	<path fill="#CCCCCC" d="M17.12,2.758c7.72,0,14,6.28,14,14c0,7.721-6.28,14-14,14c-7.72,0-14-6.279-14-14
		C3.12,9.038,9.4,2.758,17.12,2.758 M17.12-0.242c-9.389,0-17,7.611-17,17s7.611,17,17,17c9.389,0,17-7.611,17-17
		S26.508-0.242,17.12-0.242L17.12-0.242z"/>
</g>
<rect x="11.704" y="11" fill="#707071" width="10.833" height="10.833"/>
</svg>
