<?xml version="1.0" encoding="utf-8"?>
<!-- Generator: Adobe Illustrator 16.0.0, SVG Export Plug-In . SVG Version: 6.00 Build 0)  -->
<!DOCTYPE svg PUBLIC "-//W3C//DTD SVG 1.1//EN" "http://www.w3.org/Graphics/SVG/1.1/DTD/svg11.dtd">
<svg version="1.1" id="Layer_1" xmlns="http://www.w3.org/2000/svg" xmlns:xlink="http://www.w3.org/1999/xlink" x="0px" y="0px"
	 width="13.975px" height="13.975px" viewBox="0 0 13.975 13.975" enable-background="new 0 0 13.975 13.975" xml:space="preserve">
<path fill="#CCCCCC" d="M9.768,13.061l-0.707,0.707l-5-5l0.707-0.707L9.768,13.061z"/>
<path fill="#CCCCCC" d="M11.768,11.061l-0.707,0.707l-5-5l0.707-0.707L11.768,11.061z"/>
<path fill="#CCCCCC" d="M13.768,9.061l-0.707,0.707l-5-5l0.707-0.707L13.768,9.061z"/>
<path fill="#CCCCCC" d="M3.768,8.768L3.061,8.061l5-5l0.707,0.707L3.768,8.768z"/>
<path fill="#CCCCCC" d="M0.585,3.414l2.829-2.828c0.78-0.781,2.047-0.781,2.828,0L7.657,2c-0.73,0.729-0.635,0.633-1.415,1.414
	L3.414,6.242C2.633,7.023,2.751,6.906,2,7.657L0.585,6.242C-0.195,5.461-0.195,4.195,0.585,3.414z"/>
<path fill="#CCCCCC" d="M10.085,13.621l3.889,0.354l-0.354-3.889L10.085,13.621z"/>
</svg>
